<svg width="35px" height="35px"  xmlns="http://www.w3.org/2000/svg" viewBox="0 0 36.04 33.37"><defs><style>.cls-1,.cls-6{fill:none;}.cls-1,.cls-2,.cls-3,.cls-4,.cls-5,.cls-6{stroke:#000;stroke-miterlimit:10;}.cls-1{stroke-width:0.98px;}.cls-2{stroke-width:0.1px;}.cls-3,.cls-5{fill:#fff;}.cls-3{stroke-width:0.11px;}.cls-4{stroke-width:0.05px;}.cls-5{stroke-width:0.05px;}.cls-6{stroke-width:1.07px;}</style></defs><title>Ресурс 9</title><g id="Слой_2" data-name="Слой 2"><g id="Слой_6" data-name="Слой 6"><path class="cls-1" d="M13.08,15.79a4.3,4.3,0,0,1,.41-1.91,5.39,5.39,0,0,1,2.42-2.41"/><path class="cls-2" d="M22.74,16a2,2,0,0,0,0-.35,2.17,2.17,0,0,0,0-.36l-.14-.09a1.7,1.7,0,0,0,0-.22l.11-.15a4.29,4.29,0,0,0-.23-.63l-.21,0-.13-.2,0-.26a3,3,0,0,0-.37-.43l-.29.06-.22-.15-.06-.35a2.14,2.14,0,0,0-.4-.2l-.31.21-.3-.07L20,12.4l-.26,0H19.6l-.21.33-.35.07-.32-.23-.34.16-.06.35a2.39,2.39,0,0,0-.34.21l-.29-.06a2.35,2.35,0,0,0-.3.33l.06.25a2.71,2.71,0,0,0-.24.35l-.21,0a2.5,2.5,0,0,0-.18.48l.1.15a3.12,3.12,0,0,0-.09.44l-.13.09a1.83,1.83,0,0,0,0,.54l.13.09a3.43,3.43,0,0,0,.09.44l-.1.14A2,2,0,0,0,17,17l.21,0a2.82,2.82,0,0,0,.24.36l-.06.25a2.35,2.35,0,0,0,.3.33L18,18l.34.22.06.35a2.07,2.07,0,0,0,.34.15l.32-.22a2,2,0,0,0,.35.06l.21.34H20l.22-.35a1.63,1.63,0,0,0,.3-.07l.31.22a3,3,0,0,0,.4-.2l.06-.35.22-.16.29.07a3.08,3.08,0,0,0,.37-.44l0-.25.13-.21.21,0a4,4,0,0,0,.23-.64l-.11-.15a1.43,1.43,0,0,0,0-.22Z"/><circle class="cls-3" cx="19.74" cy="15.6" r="1.37"/><path class="cls-4" d="M16.92,18.81a.81.81,0,0,0,0-.16.86.86,0,0,0,0-.16l-.07,0s0-.07,0-.1l0-.07a1.42,1.42,0,0,0-.1-.29l-.1,0a.24.24,0,0,0-.06-.09l0-.11a1.12,1.12,0,0,0-.17-.2l-.13,0-.1-.07,0-.16-.18-.1-.14.1-.14,0-.1-.16h-.17l-.1.15-.16,0-.14-.1-.16.07,0,.16-.15.1-.14,0a1,1,0,0,0-.13.15l0,.11-.11.16-.09,0a1.43,1.43,0,0,0-.08.22l0,.07c0,.06,0,.13,0,.2l-.06,0v.25l.06,0c0,.06,0,.13,0,.2l0,.06a1.43,1.43,0,0,0,.08.22l.09,0,.11.16,0,.12.13.15.14,0a1.19,1.19,0,0,0,.15.09l0,.16.16.07.14-.1.16,0,.1.15h.17l.1-.16.14,0L16,20l.18-.09,0-.16.1-.07.13,0a1.63,1.63,0,0,0,.17-.2l0-.12a.24.24,0,0,0,.06-.09l.1,0a1.24,1.24,0,0,0,.1-.29l0-.06s0-.07,0-.11Z"/><circle class="cls-5" cx="15.55" cy="18.64" r="0.63"/><path class="cls-6" d="M14.33,26.33c-.59-.74.08-1.35-.34-3-.28-1.13-.7-1.26-1.73-3.2A10.71,10.71,0,0,1,10.9,17a6.93,6.93,0,0,1,1.63-5.16,7.39,7.39,0,0,1,4.22-2.64,7.47,7.47,0,0,1,4.75.61,7.29,7.29,0,0,1,3.72,4.41A7.31,7.31,0,0,1,24,20.36a17,17,0,0,0-1.53,3c-.51,2-.06,2.43-.5,3s-1.61.64-3.85.64S14.83,27,14.33,26.33Z"/><path d="M21.76,29.59c-1.18.1-2.47.16-3.85.15-1.22,0-2.35-.06-3.41-.15a.77.77,0,0,1-.52-.22.71.71,0,0,1-.22-.52v0a.74.74,0,0,1,.74-.74c1.16.07,2.39.11,3.69.11s2.44,0,3.57-.11a.77.77,0,0,1,.52.22.69.69,0,0,1,.22.52v0A.74.74,0,0,1,21.76,29.59Z"/><path d="M20.83,31.5c-.91.05-1.88.08-2.88.08s-1.91,0-2.8-.08a.65.65,0,0,1-.46-.19.67.67,0,0,1-.2-.47v-.18a.66.66,0,0,1,.66-.66c.88.08,1.84.13,2.88.13s1.94-.05,2.8-.13a.64.64,0,0,1,.46.19.66.66,0,0,1,.2.47v.18A.67.67,0,0,1,20.83,31.5Z"/><path d="M15.88,31.91v.3c0,.52.17.94.38.94a8.1,8.1,0,0,0,3.75,0,.56.56,0,0,0,.27-.28,1.78,1.78,0,0,0,.11-.66v-.3Z"/><path d="M12.76,7h0a.69.69,0,0,1-.36,0A.85.85,0,0,1,12,6.63L8.81,1.22a.76.76,0,0,1,.27-1h0a.77.77,0,0,1,1,.35l2.75,5.76a.61.61,0,0,1,.09.47A.46.46,0,0,1,12.76,7Z"/><path d="M22.31,7.11h0a.63.63,0,0,1-.2-.31.78.78,0,0,1,.07-.53L24.62.48a.77.77,0,0,1,1-.42h0a.78.78,0,0,1,.32,1L23,6.74a.7.7,0,0,1-.32.35A.48.48,0,0,1,22.31,7.11Z"/><path d="M28.72,14.6h0a.63.63,0,0,1,.07-.36.77.77,0,0,1,.42-.33L35,11.42a.77.77,0,0,1,1,.39h0a.76.76,0,0,1-.48,1l-6.06,2a.63.63,0,0,1-.47,0A.45.45,0,0,1,28.72,14.6Z"/><path d="M6.87,14.38h0a.61.61,0,0,1-.32.17A.71.71,0,0,1,6,14.44L.43,11.59a.76.76,0,0,1-.34-1h0a.77.77,0,0,1,1-.25l5.41,3.4a.6.6,0,0,1,.32.34A.44.44,0,0,1,6.87,14.38Z"/><path d="M9.33,21.67h0a.53.53,0,0,1,0,.36.71.71,0,0,1-.3.44l-4.81,4a.78.78,0,0,1-1.08-.08h0a.77.77,0,0,1,.18-1.07l5.24-3.65A.56.56,0,0,1,9,21.54.49.49,0,0,1,9.33,21.67Z"/><path d="M26.07,21.67h0A.6.6,0,0,0,26,22a.71.71,0,0,0,.3.44l4.81,4a.78.78,0,0,0,1.08-.08h0a.77.77,0,0,0-.18-1.07l-5.23-3.65a.58.58,0,0,0-.44-.17A.5.5,0,0,0,26.07,21.67Z"/></g></g></svg>