<svg  width="35px" height="35px" xmlns="http://www.w3.org/2000/svg" viewBox="0 0 42.06 28.78"><defs><style>.cls-1{fill:#1c1511;}.cls-2{fill:#2a2800;}.cls-3{fill:#191919;}.cls-4{fill:#232221;}</style></defs><title>Ресурс 8</title><g id="Слой_2" data-name="Слой 2"><g id="Слой_6" data-name="Слой 6"><path class="cls-1" d="M14,20.82a7.84,7.84,0,0,1,1.83,1.11,11.72,11.72,0,0,1,3.67,4,14.53,14.53,0,0,1,1.13,2.64l.45.23.12-14.73-10.7-3.2-.77-.24c-.13.38-.26.76-.39,1.16A39.49,39.49,0,0,0,7.58,21.84l.51.26A6.13,6.13,0,0,1,14,20.82Z"/><path class="cls-1" d="M28.11,20.82a8.28,8.28,0,0,0-1.83,1.11,11.72,11.72,0,0,0-3.66,4,15,15,0,0,0-1.14,2.64l-.45.23-.12-14.73,10.71-3.2.77-.24c.13.38.26.76.38,1.16a39.06,39.06,0,0,1,1.71,10.07l-.5.26A6.14,6.14,0,0,0,28.11,20.82Z"/><path class="cls-2" d="M0,6.76v.4l21,5.66v-.6Z"/><polygon class="cls-3" points="0 6.76 21.03 12.28 21.03 0 0 6.76"/><path class="cls-2" d="M42.06,6.76v.41L21,12.81v-.54Z"/><polygon class="cls-3" points="42.06 6.76 21.03 12.28 21.03 0 42.06 6.76"/><path d="M40.93,17.87h-.34A6.49,6.49,0,0,1,40,16c-.18-1.09,0-1.45-.05-3a14.36,14.36,0,0,0-.37-2.67A10.6,10.6,0,0,0,38.74,8l.75-.21a9.75,9.75,0,0,1,.85,2.35,12.2,12.2,0,0,1,.28,2.37c0,1.55-.22,1.95-.14,3.2A8.19,8.19,0,0,0,40.93,17.87Z"/><path class="cls-4" d="M41.71,22l0,0a.83.83,0,0,1-.6.32h0l0,0c-.23-.11-.29-.6-.36-1.13a4,4,0,0,1,0-1.3,3.45,3.45,0,0,1,.14-.49l.26-.13c0,.13,0,.33,0,.56a3.71,3.71,0,0,0,.05.74,2.4,2.4,0,0,0,.2.54c.19.34.38.48.41.82Z"/><ellipse class="cls-1" cx="40.93" cy="18.56" rx="0.72" ry="0.95"/></g></g></svg>