<svg  width="35px" height="35px" xmlns="http://www.w3.org/2000/svg" viewBox="0 0 26.76 35.77"><defs><style>.cls-1,.cls-2,.cls-3,.cls-4,.cls-5{fill:none;stroke:#000;stroke-miterlimit:10;}.cls-1{stroke-width:0.92px;}.cls-2{stroke-width:0.87px;}.cls-3{stroke-width:0.98px;}.cls-4{stroke-width:0.82px;}.cls-5{stroke-width:1.85px;}.cls-6{fill:#fff;}</style></defs><title>Ресурс 5</title><g id="Слой_2" data-name="Слой 2"><g id="Слой_6" data-name="Слой 6"><path class="cls-1" d="M19.68,6.71H10.94a.37.37,0,0,1-.36-.37A.36.36,0,0,1,10.94,6h8.74a.36.36,0,0,1,.36.36A.37.37,0,0,1,19.68,6.71Z"/><path d="M5.76,7.84h0a.66.66,0,0,1-.87,0L3.05,6a.53.53,0,0,1,0-.8h0a.66.66,0,0,1,.87,0L5.79,7A.53.53,0,0,1,5.76,7.84Z"/><path d="M5,7.81H5a.65.65,0,0,0,.86,0l3-2.91a.53.53,0,0,0,0-.79h0a.66.66,0,0,0-.87,0L5,7A.53.53,0,0,0,5,7.81Z"/><path class="cls-2" d="M18.61,12.61H10.9a.37.37,0,0,1,0-.73h7.71a.37.37,0,0,1,0,.73Z"/><path d="M5.76,13.75h0a.67.67,0,0,1-.87,0L3.05,11.9a.53.53,0,0,1,0-.8h0a.65.65,0,0,1,.87,0l1.84,1.81A.55.55,0,0,1,5.76,13.75Z"/><path d="M5,13.71H5a.64.64,0,0,0,.86,0l3-2.91a.53.53,0,0,0,0-.79h0a.66.66,0,0,0-.87,0L5,12.92A.53.53,0,0,0,5,13.71Z"/><path class="cls-3" d="M20.73,19.15H11a.36.36,0,1,1,0-.72h9.75a.36.36,0,1,1,0,.72Z"/><path d="M5.76,20.29h0a.66.66,0,0,1-.87,0L3.05,18.44a.53.53,0,0,1,0-.8h0a.66.66,0,0,1,.87,0l1.84,1.82A.53.53,0,0,1,5.76,20.29Z"/><path d="M5,20.26H5a.64.64,0,0,0,.86,0l3-2.9a.54.54,0,0,0,0-.8h0a.66.66,0,0,0-.87,0L5,19.46A.54.54,0,0,0,5,20.26Z"/><path class="cls-4" d="M17.89,25.83H11a.37.37,0,0,1,0-.72h6.94a.37.37,0,0,1,0,.72Z"/><path d="M5.85,27h0a.66.66,0,0,1-.87,0L3.14,25.12a.54.54,0,0,1,0-.8h0a.66.66,0,0,1,.87,0l1.84,1.82A.53.53,0,0,1,5.85,27Z"/><path d="M5.07,26.94h0a.65.65,0,0,0,.86,0l3-2.91a.54.54,0,0,0,0-.8h0a.64.64,0,0,0-.86,0L5,26.14A.54.54,0,0,0,5.07,26.94Z"/><rect class="cls-5" x="0.93" y="0.93" width="22.42" height="30.6" rx="1.25"/><ellipse class="cls-6" cx="21.79" cy="30.46" rx="4.97" ry="5.31"/><circle cx="21.79" cy="30" r="3.65"/><path class="cls-6" d="M21.67,31.42h0a.49.49,0,0,1-.66,0L19.62,30a.4.4,0,0,1,0-.6h0a.49.49,0,0,1,.65,0l1.39,1.37A.4.4,0,0,1,21.67,31.42Z"/><path class="cls-6" d="M21.08,31.39h0a.5.5,0,0,0,.65,0L24,29.18a.4.4,0,0,0,0-.6h0a.49.49,0,0,0-.65,0l-2.22,2.19A.41.41,0,0,0,21.08,31.39Z"/></g></g></svg>