<svg xmlns="http://www.w3.org/2000/svg" viewBox="0 0 134.51 187.63"><defs><style>.cls-1{fill:#fff;}</style></defs><title>Ресурс 11</title><g id="Слой_2" data-name="Слой 2"><g id="Слой_8" data-name="Слой 8"><path class="cls-1" d="M81.52,176.54a19.62,19.62,0,0,1-4.09-7.23,23.82,23.82,0,0,1-.91-5.76,48.16,48.16,0,0,1,.36-9.81c1.38-9.36,1.19-21.79.37-30-.2-2-.86-5.68-2.19-13-4.25-23.51-6-25-7-25s-2.51,1.74-2.81,3.55a5.62,5.62,0,0,0,.61,3.17,35.31,35.31,0,0,1,2,7.37A20.19,20.19,0,0,1,67.8,105c-.11,1.15-.34,2.89-3.29,12.77-.09.28-.23.75-.29.74s.7-4.31,1.14-8.51a56.3,56.3,0,0,0-2-22.34s0,0,0,0-.22.24-.26.3a2,2,0,0,1-1,.61,3.27,3.27,0,0,1-2.54-.34,2,2,0,0,1-1-1c-.13-.36-.13-.79,0-.84s.39.6,1,.94a2.6,2.6,0,0,0,3.31-1,1.81,1.81,0,0,0,0-1.53c-.8-1.51-4.19-.3-9.45-.29-6,0-9.65-1.55-11,.41-.35.5-.15.64-.79,2A18.7,18.7,0,0,1,39,90.58a26.94,26.94,0,0,0-2.66,4.53,30.64,30.64,0,0,0-2.94,10,38.72,38.72,0,0,0,0,8.42c.51,7.82,1.8,9.49,2.7,18.88a18,18,0,0,0,.43,3.26c1,4.08,3.61,6.64,6.9,9.81,5.05,4.86,7.07,6.7,8.11,7.72,5.67,5.56,7.7,11.18,9.7,16.73.22.63.66,1.9.24,2.21s-1.08-.29-4.36-2.73a34,34,0,0,1-4.27-3.34c-.54-.56-1.12-1.23-2.28-2.35-.46-.44-.78-.73-1.35-1.3-.4-.39-.87-.88-1.61-1.68-6.58-7.14-10.09-13-10.82-12.59-.13.07-.08.29-.06.79,0,1.14-.09,1.74-.79,5-1.44,6.56-1.35,6.29-1.51,6.84-.64,2.26-.94,2.73-2.09,6.27-.2.61-.56,1.73-1.13,3.21-.14.36-.13.34-.15.4-.55,1.87,1,4.39,1.86,4.44,2.29.15,5-16.43,5.06-17.13,0,0,0-.29.12-.34s.29.16.34.22c.43.51.18,1.72.1,2.13-.24,1.24.1.51-.21,3.07a39.35,39.35,0,0,1-1,5.47C35.88,173.38,31,181.56,31,181.94a1.66,1.66,0,0,0,0,.38.68.68,0,0,0,0,.14c.71,3.45,11.08,4.93,19.42,3.58l1.47-.29c1.39-.29,4-.83,5.63-1.24a51.9,51.9,0,0,0,5.36-2c2.88-1,6.13-2.12,9.7-1.5,2.12.36,4.65,1.4,8.9,2.75a4.26,4.26,0,0,0,2.92,0l.13-.05a3.61,3.61,0,0,0,1.86-2C86.78,180.51,84.12,179.42,81.52,176.54Zm-22.24-30.8-3-4.42a22.3,22.3,0,0,1-1.55-7.27,28.31,28.31,0,0,1,.41-5.31,51.56,51.56,0,0,1,2-8.46c1.16-3.5,2.72-8.76,4.76-17.12.32-2.7.65-5.39,1-8.09a45.71,45.71,0,0,1-.32,15c-.14.73-.76,3.07-2,7.76-1.86,7-2.83,10.31-3.26,15.2a27.27,27.27,0,0,0,0,5.19A25,25,0,0,0,59.28,145.74Z"/><path class="cls-1" d="M133.11,75.59c-.13-.3-1-2.61-2.77-7.22-.74-1.93-1-2.52-1.51-3.89-.64-1.56-1.21-2.82-1.59-3.66a10,10,0,0,1-.89-2.49,1,1,0,0,1,0-.47c.11-.52.62-.64,1-1a2.5,2.5,0,0,0,.12-2.66,2.63,2.63,0,0,0-1.72-1.34,2.49,2.49,0,0,0-2.32.65c-.66.72,0,1.5-.51,2.31-.64,1.08-2.61,1.25-4,1-1.59-.3-1.62-1.12-4.86-3.64a41.29,41.29,0,0,0-4.63-3.4c-1-.48-2-.89-2.22-1.79s.56-1.14.34-2.2c0-.26-.3-1.47-1.15-1.84-.32-.14-.7-.15-1-.51a1.2,1.2,0,0,1-.21-.5,5.45,5.45,0,0,1,0-1.29,5.66,5.66,0,0,0,0-.63c0-1.43.58-18,.67-20.67,0,0,.17-5.19,0-6.52a4,4,0,0,1,0-.92c0-.28.06-.49.06-.52.15-.71,2-.83,2.84-1.54a8.9,8.9,0,0,0,2.86-4.41c.39-1.33.89-3.06.09-3.83-1.18-1.13-4.23.86-5.24-.37-.45-.54,0-1.17-.64-1.74a2,2,0,0,0-2.41-.16c-.4.36-.25.77-.64,1.93a11.77,11.77,0,0,1-.76,1.66c-.53,1-4.37,4.44-5,5s-1.1,1.26-3.35,6.44c-2.84,6.53-3,7.49-3.87,9.25-2.55,5.25-6.59,8.18-9.09,10.15-3.93,3.1-8.15,5.14-9,5.24a.52.52,0,0,0-.31.12c-.47.38-.12,1.45.08,2.39.33,1.61-.09,1.45.18,4.25.18,1.81.27,2.71.63,3,.58.39,1.5.06,6.2-2.72,1.9-1.12,2.85-1.68,3.23-1.94,3.22-2.18,3.94-3.49,7-5.82,2.79-2.13,2.84-1.54,4.27-2.82,3.13-2.81,4-6.69,5.08-11.72,1.31-6.17,1-10.23,3.41-11.53.25-.13,1.19-.61,1.67-.24.23.17.28.48.32,1.14a23,23,0,0,1,0,2.47c.14,11,.21,15.55.25,17.43,0,0,0,1.42.11,7v.89a3.78,3.78,0,0,1-.07,1.14,1.18,1.18,0,0,1-.21.5,1.35,1.35,0,0,1-.69.37c-.78.27-1.16,1.41-1.24,2a3.8,3.8,0,0,0,0,.7,4.39,4.39,0,0,0,.15.91c.11.46.17.48.16.59-.07.66-1.41.88-2.34,1.25-1.59.63-1.63,1.53-3.9,3.74a17,17,0,0,1-3.6,2.88c-2.9,1.63-6,1.82-6.34,1.16-.11-.27.32-.54.43-1.53a2.73,2.73,0,0,0-.08-1.21,2.47,2.47,0,0,0-2.56-1.47,2.4,2.4,0,0,0-1.94,1.46,2.76,2.76,0,0,0,.19,2.13c.34.75.71.79.9,1.35.31.94-.39,1.94-.59,2.36-1.85,3.93-5.61,11.64-7.2,18a8.23,8.23,0,0,0-.36,3.24,9.19,9.19,0,0,0,6.4,7.18,9.34,9.34,0,0,0,5.73-.13,10.35,10.35,0,0,0,5.91-6c.07-.19.18-.51,0-.71s-.78-.09-2.25.23a14.32,14.32,0,0,1-3.75.43,10.39,10.39,0,0,1-3.84-.64s.18-.07.47-.09c2.15-.18,3.86-.2,5.34-.41a8.29,8.29,0,0,0,2.55-.65c1.33-.58,1.62-.84,1.74-1.06A3,3,0,0,0,93,77.68a4.17,4.17,0,0,0-.26-1c-.58-1.59-1.29-3.07-1.61-3.74-.53-1.11-.8-1.66-1-2.2-.38-.87-.53-1.26-1-2.25-.37-.81-.56-1.18-.79-1.68-1.65-3.74-2.94-7.72-2.94-7.72.28,0,.7-.06,1.22-.08,1,0,1.76,0,1.85,0,1.8,0,6.49-2.15,7-2.37,1.9-.86,5.69-2.6,10-2.26a26.26,26.26,0,0,1,5.4,1.38c1.22.38,2.15.74,2.91,1.06,1.18.51,1.93.93,3.62,1.6a12.5,12.5,0,0,0,1.44.52,8.11,8.11,0,0,0,3.07.27c1-.12,1.67-.41,1.89-.11.1.14,0,.35,0,.66a3,3,0,0,1-.52,1.08c-.09.14-.26.55-.61,1.38-.84,2-2,5.18-3.28,8.05-.87,2-1.71,4-2.56,6a8.52,8.52,0,0,0-.65,2,9.63,9.63,0,0,0,.38,4.45,9.51,9.51,0,0,0,7,6.15c6.4,1.13,10.33-5.93,10.53-6.52.05-.13.18-.54,0-.65s-.27,0-.31,0a30.59,30.59,0,0,1-6.6.78c-1.83,0-3.39-.5-3.37-.68s2.27,0,5.5-.45c2.87-.39,4.59-.65,5.11-1.77C134.74,78.82,134.28,78.26,133.11,75.59Zm-46-8.5c2,4.54,2.94,6.93,3.45,8.28l1,2.7s-2-.47-3.81-.77a24.87,24.87,0,0,0-3.55-.39,24.23,24.23,0,0,0-4.53.29,14.71,14.71,0,0,1-3.34.43.71.71,0,0,1-.43-.36.73.73,0,0,1,.09-.49,6.49,6.49,0,0,1,.46-.92h0c.33-.68.65-1.37,1-2.07.52-1.12,1-2.23,1.5-3.32l4.77-10.89C85.07,62.46,86.2,65,87.13,67.09Zm17.36-19.51A1.38,1.38,0,0,1,103.16,46a1.35,1.35,0,1,1,1.33,1.59ZM125.31,77a41.35,41.35,0,0,0-8.07.67c1.47-3.23,2.62-5.85,3.42-7.67.9-2.07,1.78-4.12,3.23-7.39.43-1,.86-1.94,1.3-2.9l1.11,2.44q3.39,7.86,6.79,15.7A41.13,41.13,0,0,0,125.31,77Z"/><path class="cls-1" d="M70.21,45.33c0-.43-.12-2.35-.11-3.3,0-.39,0-.79,0-1.18,0-1.94,0,.21,0-.67,0-.44,0-.52-.06-.6s-.63-.19-.93,0c-.7.35-.08,1.72-.41,3.87-.06.36-.32,1.16-.84,2.76a10.53,10.53,0,0,1-1.4,3.27c-.09.12-.46.52-1.21,1.31-.29.3-.84.83-2,1.88-.64.61-1,.81-1,.74s0-.08.08-.41a5.6,5.6,0,0,1,.93-1.44,9,9,0,0,0,.61-1,22.18,22.18,0,0,0,1.93-4.19c.16-.51.36-1.44.52-2.16.27-1.18.21-1,.33-1.48.42-1.7.86-2.65.54-3.4a.56.56,0,0,0-.31-.36c-.33-.1-.71.36-.76.42a2,2,0,0,0-.38.84,15.87,15.87,0,0,1-.74,2,14.52,14.52,0,0,1-2,3.62,13.7,13.7,0,0,1-2.88,2.89,15.17,15.17,0,0,1-2.48,1.46c-1.86,1-2.46,1-4.6,2-1.85.81-1.36.74-3.87,1.9a33,33,0,0,0-4.21,2.1A13.12,13.12,0,0,0,43,57.51c-.19.18-.4.38-.78.72a11.4,11.4,0,0,0-.92.78c-.28.3-.32.42-.56.54a3.22,3.22,0,0,1-.66.21,7.16,7.16,0,0,1,1.06-2l0,0a11.81,11.81,0,0,1,.94-.81c.17-.15.38-.34.63-.6h0c.7-.64,2.43-2.11,7.08-4.17,4-1.79,5-1.67,7.27-3.29a37.37,37.37,0,0,0,3-2.44,13.34,13.34,0,0,0,2.78-2.91c.06-.09,0,0,.92-1.66.57-1,.85-1.51.66-1.76a.54.54,0,0,0-.46-.13,10.08,10.08,0,0,0-2.62.21c-2.76,1-4.8,0-18.82,5.67-4.76,1.94-5.84,2.55-7,3.68-2.18,2.09-5,6.22-3.72,9.07s6.34,1.24,8.11,4.72c.47.93.24,1.29,1.25,3.89.51,1.31.86,2,1.28,3.37a11.35,11.35,0,0,1,.61,2.62c0,2.18-1.12,4.79-.64,5.38a5.46,5.46,0,0,1,.67,1,4.25,4.25,0,0,1,.43,1,3.47,3.47,0,0,1,.06,1.34c-.24,1.71-1.5,2.73-1.34,3.56.36,1.86,7.92,2.65,14.14,1.72a6.46,6.46,0,0,1,2.2-.25,6.65,6.65,0,0,0,2.5-.06h0a1.93,1.93,0,0,0,1-.12,1.77,1.77,0,0,0,.76-.85c.42-.95,0-1.92.17-2s.3.25.35.32a4.24,4.24,0,0,1,.49,2,5,5,0,0,0,.67,1.89c.87,1.33,3.69,2.2,5,.8s.4-4.26-.9-4.82-3.14.84-3.33.49c-.07-.13.15-.4.33-.55a2.1,2.1,0,0,1,1.22-.31c1.14-.18,2-1.82,1.76-2.16s-.94.34-2.8.71a16.1,16.1,0,0,1-3.17.27c-.43,0-1.38,0-2.58-.07-.5,0-.8-.08-1.52-.12l-1.5-.06c-1.68-.09-1.16-.1-1.47-.1L55,82.08c-.35,0-.73-.22-.72-.37s0-.09.2-.17.58-.1,1.31-.05c.28,0,.4,0,.84,0l.35,0c.88,0,2.17,0,3.74,0,1.31,0,2,0,2.56-.11A10,10,0,0,0,68,80a3.45,3.45,0,0,0,.32-.21,4.42,4.42,0,0,0,1.8-3,2.3,2.3,0,0,0-.4-1.51c-.06,0,0,.23-.22.58a3.06,3.06,0,0,1-.38.54,6.27,6.27,0,0,1-.43.52c-.13.12-.19.15-.35.3a2.36,2.36,0,0,1-.2.18l-.14.11a2.45,2.45,0,0,1-.43.21.21.21,0,0,1-.16-.09.26.26,0,0,1,.07-.32c.16-.17.39-.41.65-.7l.3-.34a7.43,7.43,0,0,0,1.17-2.4c.86-2.7.62-4.79.5-8,0-.6,0-1.13-.41-1.37-1.15-.77-4.37,2.3-4.77,1.85,0,0,0-.09,0-.25.34-1.35,3.9-2.24,5.6-4.1,1.27-1.39,1.32-3.13,1.41-5.76C72.08,51.85,70.42,49.12,70.21,45.33Zm-8.06,19a11.9,11.9,0,0,1-2.32,1.94,15,15,0,0,1-3.86,2,9.21,9.21,0,0,1-3.38.57A8.3,8.3,0,0,1,49.1,68a7.13,7.13,0,0,1-3.77-4c-.15-.56-.27-1.37-.09-1.44s.85,1.55,2.15,2.74a7.18,7.18,0,0,0,4.53,1.68,8.44,8.44,0,0,0,7.39-4.77l1.27-2.49a6.83,6.83,0,0,1,0,1.52,7.1,7.1,0,0,1-2.07,4.27,12.1,12.1,0,0,0,2.79-1.21c.78-.45,1.41-1,1.49-.85S62.26,64.21,62.15,64.33Z"/><path class="cls-1" d="M61.52,169.4c-2.41-10.06-11.43-18-21.38-29.86-1.69-2-11.19-13.47-14.06-17.49a32.55,32.55,0,0,0-3.41-4.25c-1.12-1.11-1.9-1.66-1.87-2.55s1-1,2.21-2.8c1-1.52,1.08-2.53,2.11-2.9.51-.19.68,0,1.35-.27a2.63,2.63,0,0,0,1.67-1.47,2.15,2.15,0,0,0-.79-2.45,2,2,0,0,0-1.77-.12,2.87,2.87,0,0,0-1.46,1.88,5.21,5.21,0,0,0-.13.66h0a1.78,1.78,0,0,0,0,.5c0,.3-2.05,1.39-3.07,2.23-1.29,1.06-1.26,2-2.47,2.34-.17,0-.93.25-1.27-.12-.49-.53.27-1.9.61-2.65a31.12,31.12,0,0,1,3.9-6.91,60.34,60.34,0,0,0,12.07-18.3c.5-1.3,1.81-4.92,3.09-8.75.25-.75.56-1.72,1.18-3.67,2.17-6.86,2.41-8,1.79-9.2a6.19,6.19,0,0,0-3.09-2.69,13.29,13.29,0,0,1-2.24-.74c-1.45-.77-1.86-1.74-2.27-1.59s-.16,1.68-.24,3.49c-.09,2.05-.62,2.2-1.57,5.76A55,55,0,0,0,29.09,74c-.48,3.23-.25,3.27-.61,4.6-.7,2.55-1.87,3.51-3.72,6.19a43,43,0,0,0-4.63,8.76c-2.1,5.23-1.43,6.44-3.3,8-1.34,1.1-2.77,1.36-4.39,3.37-.59.73-1.29,1.8-1.64,1.65s-.22-.73-.18-1c.05-.48.22-.61.2-1a1.49,1.49,0,0,0-.45-.87c-1.28-1.4-3.27-2.19-3.78-3.68-.38-1.11.34-1.44-.12-2.51a3.37,3.37,0,0,0-3-1.92A3.6,3.6,0,0,0,.21,98a3.68,3.68,0,0,0,.67,3.64,3.44,3.44,0,0,0,2.7,1.12c.13,0,.46-.12.61,0s0,.62,0,.76c-.4,1.43,3.81,3.32,4.11,6.07.1,1-.4.89-.33,2.12.14,2.15,1.8,4.32,3.13,4.23.77,0,1-.82,1.81-.75a1.62,1.62,0,0,1,1.46,1.28c.05,1-1.93,1-3.8,3.09-1.1,1.25-1.37,2.36-2.5,2.55-.57.1-.93-.13-1.56.16a2.16,2.16,0,0,0-1.18,1.35,2.13,2.13,0,0,0,.37,1.78,1.94,1.94,0,0,0,1.42.84A2.5,2.5,0,0,0,9,124.89c.31-.6.3-1.13.83-1.51a1.68,1.68,0,0,1,.59-.27,9.12,9.12,0,0,0,2.51-1.3c1.63-1,1.9-2.11,2.61-2,.44.09.68.57.76.7,7,11.54,17.47,20.56,25.74,31.21,1.64,2.1,17,21.79,19.39,20.23C62,171.63,61.74,170.31,61.52,169.4Zm-55.7-71c-.13.17-1.08-.87-2.6-.86s-2.2.86-2.3.72A2.84,2.84,0,0,1,3.5,96.47C5,96.55,6,98.24,5.82,98.43Zm44.65,59c-.11.09-1.18-1-1.69-1.57-.3-.32-.84-.95-1.91-2.21a17,17,0,0,1-1.78-2.34c-.1-.16-.18-.29-.23-.39-.23-.35-.59-.89-1-1.53-1.17-1.61-2-2.47-3.52-4.22l-.15-.18c-1-1.34-1.82-2.2-2-2.39-1.4-1.61-6.29-8-11.42-14.31-.92-1.14-2.73-3.35-5.4-6.68L20,119.91a3.64,3.64,0,0,1-.66-.9c-.2-.38-.54-1-.28-1.5l.09-.14a.65.65,0,0,1,.39-.42c.49-.11,1.15.89,2.13,2.38.15.22.39.61.78,1.1.26.34.48.61.64.78l.14.23a24.17,24.17,0,0,1,1.56,2c.67,1,.9,1.39,1.7,2.53.53.77.94,1.31,1.32,1.8,2.4,3.15,9,11.08,9,11.08,3.76,4.55,6.32,8,8.49,10.94C45.9,150.65,50.73,157.18,50.47,157.39Z"/><ellipse class="cls-1" cx="70.8" cy="184.89" rx="6.81" ry="2.74"/><path class="cls-1" d="M69.26,15.1a5.34,5.34,0,0,0-1.48-2c-.5-.43-.87-.63-4-1.88-1.72-.69-2-.81-2.45-.94a22.36,22.36,0,0,0-2.68-.72,10.53,10.53,0,0,0-6.46,1.23c-.19.11-3.5,2.1-3.92,4.53a16.09,16.09,0,0,0-.3,2.29,3.52,3.52,0,0,1-.19,1.62,6.17,6.17,0,0,0-.32.72,2.46,2.46,0,0,0-.08,1.3,2.64,2.64,0,0,0,.09.31,2.83,2.83,0,0,0,.27.56c.36.59-.53,2,0,3a1.11,1.11,0,0,0,.31.37,1.39,1.39,0,0,1,.2.29c0,.09.87,1.69.23,2.47-.18.22-.36.24-.64.38A4.29,4.29,0,0,0,46,30.88a6.19,6.19,0,0,0-.73,3.43c.07.68.24.92.32,1.93,0,.28.05.8.15,1.57,0,.21.05.38.06.5h0l0,0h0A3,3,0,0,0,46,39l.06.12a.26.26,0,0,0,.14.09c.27,0,.64-.48.78-1a1.62,1.62,0,0,1,.09-.3,13,13,0,0,0,.81-1.5c.41-.92.32-1,.73-1.84.28-.58.34-.61.67-1.31a8.65,8.65,0,0,0,.64-1.47c.16-.86-.09-1.3.24-1.86a2.62,2.62,0,0,1,.32-.42c.12-.12.43-.44.54-.38s0,.59-.07.72l-3.1,10.5-.23.46-.21.35c-2.3,3.7-4.74,4.64-4.57,5.21.38,1.38,18.71-1.75,18.69-5.56,0-1.16-1.72-2.65-1.18-3.37.21-.27.45,0,1.34-.47a5.12,5.12,0,0,0,1.75-1.37l.07-.09C64.68,34,64.62,34.17,64.69,34c.31-.58.15-.82.69-2h0c1.31-2.82,2-4.23,1.84-4.5-1-2.05-7.45-1.87-7.54-2.34a.3.3,0,0,1,0-.26.33.33,0,0,1,.27-.1c.92,0,1.84-.05,2.75,0l1,.06c.66,0,1,.08,1.44.15a10.35,10.35,0,0,1,1.66.35c.61.18.85.33,1,.2s0-.82-.16-1.09c-.46-.85-1.71-1-5.18-1.13-4.29-.15-6.44-.23-7.15,0-.53.15-2.13.63-2.45.14a.5.5,0,0,1,0-.42c.09-.21.38-.26.83-.37s.7-.2,1.06-.27c.67-.14.81-.24,1.74-.52A14,14,0,0,1,59,21.33c.48,0,.42,0,2.55,0,1.09,0,.93,0,1.4,0a16.64,16.64,0,0,1,3.2.15c1.37.25,1.93.67,2.33.32a.85.85,0,0,0,.18-1c-.08-.12-.19-.17-.77-.31s-1.14-.25-1.22-.26l-1.18-.23-1.2-.29-.51-.13a14,14,0,0,0-2.28-.32c-1.7-.1-3-.16-3.08-.16-1.42-.07-2.13-.1-2.42-.1a12.53,12.53,0,0,0-2.21,0c-.18,0-.64.13-.72,0s.06-.2.11-.27a1.48,1.48,0,0,1,.9-.49c.33-.08.49-.06.85-.13.72-.12.85-.17,1.21-.23a8.88,8.88,0,0,1,1.57,0c1.48,0,1.34,0,1.84,0,.89,0,.88.09,2.64.27,1.35.13,2.32.19,3.16.33l.91.16a3.74,3.74,0,0,1,.77.13c.38.12.43.25.83.37a1.28,1.28,0,0,0,.61.07,1.2,1.2,0,0,0,.67-.38,2,2,0,0,0,.39-1,4,4,0,0,0-.23-2.62Z"/></g></g></svg>