<?xml version="1.0" encoding="utf-8"?>
<!-- Generator: Adobe Illustrator 24.0.1, SVG Export Plug-In . SVG Version: 6.00 Build 0)  -->
<svg version="1.1" id="Слой_1" xmlns="http://www.w3.org/2000/svg" xmlns:xlink="http://www.w3.org/1999/xlink" x="0px" y="0px"
	 viewBox="0 0 135.4 161.2" style="enable-background:new 0 0 135.4 161.2;" xml:space="preserve">
<style type="text/css">
	.st0{fill:#4FA3FC;}
	.st1{fill:none;stroke:#EAF400;stroke-width:9.4313;stroke-miterlimit:10;}
	.st2{fill:#EAF400;stroke:#EAF400;stroke-width:5.894559e-02;stroke-miterlimit:10;}
	.st3{fill:#04004A;stroke:#216696;stroke-width:8.2524;stroke-miterlimit:10;}
	.st4{fill:#98ABB4;stroke:#98ABB4;stroke-width:6.484;stroke-miterlimit:10;}
	.st5{fill:#FFFFFF;stroke:#FFFFFF;stroke-width:0.5895;stroke-miterlimit:10;}
	.st6{fill:#E0E8EC;stroke:#E0E8EC;stroke-width:0.5895;stroke-miterlimit:10;}
	.st7{stroke:#000000;stroke-width:0.5895;stroke-miterlimit:10;}
	.st8{fill:#FFFFFF;}
</style>
<rect x="9.9" y="7.5" class="st0" width="115.6" height="144.3"/>
<g>
	<path class="st1" d="M125.3,7.6H10c-0.7,0-1.3,0.3-1.8,0.8s-0.7,1.1-0.7,1.8v137.2c0,1.4,1.1,2.6,2.5,2.6h47.7
		c1,0.1,2.1,0.2,3.3,0.6c2.9,0.8,5,2.2,6.3,3.3c1.4-1.1,3.8-2.7,7.1-3.4c1.5-0.4,2.8-0.5,4-0.5c15.6,0,31.3,0,46.9,0
		c1.4,0,2.5-1.2,2.5-2.6V10.2C127.9,8.8,126.7,7.6,125.3,7.6z"/>
	<path class="st2" d="M9.2,11H5.9c-0.4,0-0.7-0.3-0.7-0.7V5.9c0-0.4,0.3-0.7,0.7-0.7h3.3c0.4,0,0.7,0.3,0.7,0.7v4.4
		C9.9,10.7,9.6,11,9.2,11z"/>
	<path class="st2" d="M129.5,10.9h-3.3c-0.4,0-0.7-0.3-0.7-0.7V5.8c0-0.4,0.3-0.7,0.7-0.7h3.3c0.4,0,0.7,0.3,0.7,0.7v4.4
		C130.2,10.6,129.9,10.9,129.5,10.9z"/>
	<path class="st2" d="M129.5,152.4h-3.3c-0.4,0-0.7-0.3-0.7-0.7v-4.4c0-0.4,0.3-0.7,0.7-0.7h3.3c0.4,0,0.7,0.3,0.7,0.7v4.4
		C130.2,152.1,129.9,152.4,129.5,152.4z"/>
	<path class="st2" d="M9.2,152.4H5.8c-0.4,0-0.7-0.3-0.7-0.7v-4.4c0-0.4,0.3-0.7,0.7-0.7h3.3c0.4,0,0.7,0.3,0.7,0.7v4.4
		C9.9,152.1,9.6,152.4,9.2,152.4z"/>
</g>
<g>
	<g>
		<path class="st3" d="M99.4,103.4H35.6c-1.7,0-3,1.3-3,2.8v29.9c0,1.5,1.4,2.8,3,2.8h29.4c0.2,1.1,1.4,2,2.9,2c1.4,0,2.5-0.9,2.9-2
			h28.8c1.7,0,3-1.3,3-2.8v-29.9C102.4,104.7,101.1,103.4,99.4,103.4z"/>
		<path class="st4" d="M61.7,136.4H39.5c-2.8,0-5.1-2.3-5.1-5.1v-24.6c0-2.8,2.3-5.1,5.1-5.1h22.4c2.8,0,5.1,2.3,5.1,5.1v24.5
			C66.8,134.1,64.5,136.4,61.7,136.4z"/>
		<path class="st4" d="M95.5,136.4H73.8c-2.8,0-5.1-2.3-5.1-5.1v-24.5c0-2.8,2.3-5.1,5.1-5.1h21.7c2.8,0,5.1,2.3,5.1,5.1v24.5
			C100.6,134.1,98.3,136.4,95.5,136.4z"/>
	</g>
	<g>
		<path class="st5" d="M64.7,135.4c-1.8,0.3-2.7-1.7-4.8-2.8c-5.8-3.2-16.6,3.3-20.8,2.8c-0.4-0.1-1.5-0.2-2.3-1
			c-0.6-0.6-1-1.5-1-2.5v-29.4c0-1,0.4-1.8,1-2.5c0.8-0.9,1.9-1,2.3-1c4.7-0.6,16.6-4.7,22.5-2.6c0.7,0.2,2,0.8,3.2,1.7
			c0.2,0.2,1.3,0.9,2.1,2c0.4,0.5,0.7,1,0.9,1.7c0.1,0.2,0.1,0.6,0.1,0.8v29.5C67.2,133.4,66.2,135.1,64.7,135.4z"/>
		<path class="st6" d="M71.3,135.4c1.8,0.3,2.7-1.7,4.8-2.8c5.8-3.2,16.5,3.3,20.6,2.8c0.4-0.1,1.5-0.2,2.2-1c0.6-0.6,1-1.5,1-2.5
			v-29.4c0-1-0.4-1.8-1-2.5c-0.8-0.9-1.9-1-2.2-1c-4.6-0.6-16.5-4.7-22.4-2.6c-0.7,0.2-1.9,0.8-3.2,1.7c-0.2,0.2-1.3,0.9-2.1,2
			c-0.4,0.5-0.7,1-0.9,1.7c-0.1,0.2-0.1,0.6-0.1,0.8v29.5C68.8,133.4,69.8,135.1,71.3,135.4z"/>
	</g>
</g>
<g>
	<g>
		<path class="st7" d="M68,118.9c-1.7,0-3.7-0.1-6.1-0.6c-1.8-0.4-3.3-1-4.6-1.4c-0.1-0.4-0.2-1,0-1.5c0.2-0.9,1-1.3,1.8-1.8
			c2.2-1.5,2.7-1.5,3.3-2.5c0.4-0.6,0.6-1.2,0.7-1.7c0.2-0.8,0.3-1.4,0.4-1.9c1.4,0,2.9,0,4.3,0C67.9,111.2,68,115,68,118.9z"/>
		<path class="st7" d="M67.9,118.9c1.7,0,3.7-0.1,6.1-0.6c1.8-0.4,3.3-1,4.6-1.4c0.1-0.4,0.2-1,0-1.5c-0.2-0.9-1-1.3-1.8-1.8
			c-2.2-1.5-2.7-1.5-3.3-2.5c-0.4-0.6-0.6-1.2-0.7-1.7c-0.2-0.8-0.3-1.4-0.4-1.9c-1.4,0-2.9,0-4.3,0C68,111.2,67.9,115,67.9,118.9z"
			/>
	</g>
	<path class="st7" d="M65.6,78.2c0.3,0.2,0.3,0.3,0.5,0.4c0.3,0.1,0.6-0.1,0.6-0.2c0.3-0.2,0.4-0.5,0.5-0.6c0.2-0.5-0.1-1-0.3-1.4
		c-0.2-0.2-0.3-0.5-0.4-0.6c-0.7-0.9-0.8-0.9-0.9-1.2c-0.2-0.6-0.1-1.1,0-1.3c0.2-0.6,0.6-0.8,0.6-0.9c0.3-0.2,0.6-0.4,0.8-0.4
		c0.2-0.1,0.6-0.2,0.6-0.2c0.2,0,0.2,0,0.3,0C68,83.7,68,95.6,67.9,107.3h-4.4c-0.4-0.7-0.9-1.8-0.8-3.1c0-0.3,0.1-0.5,0.1-0.7
		c0,0,0.2-0.8,0.6-1.5c0.1-0.2,0.2-0.2,0.5-0.6c0.7-0.6,1-0.9,1.2-1c1.1-1.1-0.5-3.4,0.3-4.9c0.1-0.2,0.2-0.5,0.2-1
		c-0.1-0.3-0.2-0.3-0.4-0.9c-0.2-0.5-0.4-0.8-0.2-1.2c0.1-0.2,0.2-0.3,0.2-0.6c0-0.1,0.1-0.3,0-0.6c-0.1-0.4-0.2-0.5-0.4-0.9
		c0-0.1-0.2-0.6,0.1-1.1s0.8-0.6,0.8-0.8c0-0.2-0.3-0.2-0.6-0.5c-0.5-0.4-0.6-1-0.6-1c-0.1-0.5,0.2-0.9,0.2-1
		c0.1-0.2,0.3-0.5,0.7-0.6c0.5-0.2,0.8,0,1-0.2c0.1-0.1,0-0.2,0-0.4c-0.1-0.3-0.2-0.5-0.4-1c-0.1-0.2-0.1-0.2-0.2-0.5
		c-0.2-0.2-0.2-0.5-0.3-0.6c0,0,0,0,0-0.1c-0.2-0.3-0.4-0.6-0.6-0.8s-0.3-0.4-0.6-0.6c-0.1-0.1-0.2-0.2-0.6-0.5
		c-0.3-0.2-0.7-0.6-1.4-1c-0.4-0.2-0.6-0.4-1.1-0.5c-0.2,0-0.6-0.2-1.4-0.1c-0.8,0.1-1,0.3-2.5,0.9c-0.7,0.2-1.2,0.5-1.8,0.6
		c-0.5,0.1-1.1,0.2-2.1,0.2c-0.2,0-1.4-0.1-2.6-0.7c-0.4-0.2-0.6-0.4-0.9-0.6c-0.2-0.2-0.5-0.4-0.6-0.7c-0.2-0.4-0.2-0.8-0.2-1
		c0.1-0.5,0.4-1.4,1-1.4c0.4-0.1,1,0.2,1,0.6s-0.6,0.3-0.8,0.7c-0.2,0.5,0.6,1.2,1.3,1.5c0.7,0.4,1.4,0.4,1.8,0.5
		c0.8,0.1,1.4-0.2,1.8-0.2c0.1,0,0.7-0.2,1.2-0.5c0,0,0.3-0.2,0.8-0.5c0.1,0,0.1-0.1,0.1-0.1c0.1-0.1,0.2-0.2,0.5-0.3
		c0.2-0.1,0.3-0.2,0.6-0.4s0.4-0.2,0.6-0.3c0.3-0.2,0.5-0.2,0.6-0.2c0.2-0.1,0.3-0.2,0.6-0.2c0.4-0.2,0.6-0.2,0.9-0.2
		c0.2-0.1,0.5-0.1,0.6-0.1c0.1,0,0.3,0,0.6,0.1c0.5,0.1,0.9,0.2,1.2,0.3c0.3,0.2,0.6,0.2,0.7,0.3c0.2,0.1,0.5,0.2,0.7,0.4
		C65.2,77.9,65.6,78.1,65.6,78.2z"/>
	<path class="st7" d="M70.3,78.2c-0.3,0.2-0.3,0.3-0.5,0.4c-0.3,0.1-0.6-0.1-0.6-0.2c-0.3-0.2-0.4-0.5-0.5-0.6
		c-0.2-0.5,0.1-1,0.3-1.4c0.2-0.2,0.3-0.5,0.4-0.6c0.7-0.9,0.8-0.9,0.9-1.2c0.2-0.6,0.1-1.1,0-1.3c-0.2-0.6-0.6-0.8-0.6-0.9
		C69.3,72.2,69,72,68.8,72c-0.2-0.1-0.6-0.2-0.6-0.2c-0.2,0-0.2,0-0.3,0C68,83.7,68,95.6,68,107.3h4.4c0.4-0.7,0.9-1.8,0.8-3.1
		c0-0.3-0.1-0.5-0.1-0.7c0,0-0.2-0.8-0.6-1.5c-0.1-0.2-0.2-0.2-0.5-0.6c-0.7-0.6-1-0.9-1.2-1c-1.1-1.1,0.5-3.4-0.3-4.9
		c-0.1-0.2-0.2-0.5-0.2-1c0.1-0.3,0.2-0.3,0.4-0.9c0.2-0.5,0.4-0.8,0.2-1.2c-0.1-0.2-0.2-0.3-0.2-0.6c0-0.1-0.1-0.3,0-0.6
		c0.1-0.4,0.2-0.5,0.4-0.9c0-0.1,0.2-0.6-0.1-1.1s-0.8-0.6-0.8-0.8c0-0.2,0.3-0.2,0.6-0.5c0.5-0.4,0.6-1,0.6-1
		c0.1-0.5-0.2-0.9-0.2-1c-0.1-0.2-0.3-0.5-0.7-0.6c-0.5-0.2-0.8,0-1-0.2c-0.1-0.1,0-0.2,0-0.4c0.1-0.3,0.2-0.5,0.4-1
		c0.1-0.2,0.1-0.2,0.2-0.5c0.2-0.2,0.2-0.5,0.3-0.6c0,0,0,0,0-0.1c0.2-0.3,0.4-0.6,0.6-0.8s0.3-0.4,0.6-0.6c0.1-0.1,0.2-0.2,0.6-0.5
		c0.3-0.2,0.7-0.6,1.4-1c0.4-0.2,0.6-0.4,1.1-0.5c0.2,0,0.6-0.2,1.4-0.1c0.8,0.1,1,0.3,2.5,0.9c0.7,0.2,1.2,0.5,1.8,0.6
		c0.5,0.1,1.1,0.2,2.1,0.2c0.2,0,1.4-0.1,2.6-0.7c0.4-0.2,0.6-0.4,0.9-0.6c0.2-0.2,0.5-0.4,0.6-0.7c0.2-0.4,0.2-0.8,0.2-1
		c-0.1-0.5-0.4-1.4-1-1.4c-0.4-0.1-1,0.2-1,0.6s0.6,0.3,0.8,0.7c0.2,0.5-0.6,1.2-1.3,1.5c-0.7,0.4-1.4,0.4-1.8,0.5
		c-0.8,0.1-1.4-0.2-1.8-0.2c-0.1,0-0.7-0.2-1.2-0.5c0,0-0.3-0.2-0.8-0.5c-0.1,0-0.1-0.1-0.1-0.1c-0.1-0.1-0.2-0.2-0.5-0.3
		c-0.2-0.1-0.3-0.2-0.6-0.4c-0.2-0.2-0.4-0.2-0.6-0.3c-0.3-0.2-0.5-0.2-0.6-0.2c-0.2-0.1-0.3-0.2-0.6-0.2c-0.4-0.2-0.6-0.2-0.9-0.2
		c-0.2-0.1-0.5-0.1-0.6-0.1s-0.3,0-0.6,0.1c-0.5,0.1-0.9,0.2-1.2,0.3c-0.3,0.2-0.6,0.2-0.7,0.3c-0.2,0.1-0.5,0.2-0.7,0.4
		C70.7,77.9,70.4,78.1,70.3,78.2z"/>
	<g>
		<path d="M53.5,106.2c2.9,0.1,4.8-1.8,5-2.1c1.3-1.3,1.5-3.4,2.1-4.1c0.1-0.1,0.2-0.2,0.2-0.6c0-0.2-0.1-0.3-0.2-0.5
			c-4.8,0-9.6,0-14.3,0c-0.1,0.1-0.2,0.2-0.2,0.4c0,0.2,0.2,0.5,0.2,0.5c0.6,0.6,1.2,2.9,2.6,4.3C50.8,106.1,53.3,106.2,53.5,106.2z
			"/>
		<path d="M46.4,99c0.3,0,0.6,0,1,0c1-2.6,1.8-5.1,2.7-7.7c1.2-3.4,2.3-6.9,3.4-10.3c-0.2-0.1-0.4-0.1-0.6-0.2
			c-1,3.2-2.1,6.6-3.3,10.1C48.5,93.8,47.5,96.5,46.4,99z"/>
		<path d="M60.3,99c-0.3,0-0.6,0-1,0c-1-2.3-1.9-4.9-2.7-7.7c-1.1-3.7-1.9-7.1-2.5-10.3c0.2,0,0.5,0,0.7-0.1c0.5,3,1.2,6.3,2.3,10
			C58.1,94,59.2,96.7,60.3,99z"/>
	</g>
	<g>
		<path d="M81.6,106.3c2.9,0.1,4.8-1.8,5-2.1c1.3-1.3,1.5-3.4,2.1-4.1c0.1-0.1,0.2-0.2,0.2-0.6c0-0.2-0.1-0.3-0.2-0.5
			c-4.8,0-9.6,0-14.3,0c-0.1,0.1-0.2,0.2-0.2,0.4c0,0.2,0.2,0.5,0.2,0.5c0.6,0.6,1.2,2.9,2.6,4.3C78.9,106.1,81.4,106.3,81.6,106.3z
			"/>
		<path d="M74.5,99.1c0.3,0,0.6,0,1,0c1-2.6,1.8-5.1,2.7-7.7c1.2-3.4,2.3-6.9,3.4-10.3c-0.2-0.1-0.4-0.1-0.6-0.2
			c-1,3.2-2.1,6.6-3.3,10.1C76.6,93.9,75.6,96.5,74.5,99.1z"/>
		<path d="M88.4,99.1c-0.3,0-0.6,0-1,0c-1-2.3-1.9-4.9-2.7-7.7c-1.1-3.7-1.9-7.1-2.5-10.3c0.2,0,0.5,0,0.7-0.1c0.5,3,1.2,6.3,2.3,10
			C86.3,94.1,87.4,96.8,88.4,99.1z"/>
	</g>
</g>
<g>
	<path class="st8" d="M19.4,48.7h2.3c1.9,0,2.8,1.6,2.8,4.4v6.4c0,2.8-1.1,4.4-2.8,4.4h-2.3C19.4,64.1,19.4,48.7,19.4,48.7z
		 M21.7,63.3c1.5,0,2.3-1.2,2.3-3.6v-6.4c0-2.4-0.8-3.4-2.3-3.4h-1.6v13.5H21.7z"/>
	<path class="st8" d="M26.5,59.8V48.7h0.7v11.1c0,2.4,0.8,3.6,2,3.6c1.2,0,2-1.2,2-3.6V48.7h0.7v11.1c0,3-1.1,4.6-2.7,4.6
		C27.6,64.3,26.5,62.9,26.5,59.8z"/>
	<path class="st8" d="M36,57.8h-1.3v6.2H34V48.7h2.1c1.9,0,2.9,1.6,2.9,4.4c0,2.6-0.8,4.4-2.3,4.6l2.5,6.2h-0.8L36,57.8z M34.7,57
		h1.6c1.3,0,2-1.2,2-3.6c0-2.4-0.8-3.6-2.3-3.6h-1.5V57H34.7z"/>
	<path class="st8" d="M44.7,60.2h-3.3l-0.7,4H40l2.7-15.3h0.8l2.7,15.3h-0.7L44.7,60.2z M44.6,59.2L43.5,53c-0.1-1-0.4-2.2-0.4-3
		l0,0c-0.1,0.6-0.3,1.8-0.4,3l-1.1,6.2H44.6z"/>
	<path class="st8" d="M55.4,63.3v1H51V48.9h0.7v14.5h3.7V63.3z"/>
	<path class="st8" d="M61.5,63.3v1h-4.7V48.9h4.7v1h-4v5.8h3.6v1h-3.7v6.4H61.5z"/>
	<path class="st8" d="M67.3,64.1L65.2,57l-2.1,7.1h-0.7l2.5-8.1l-2.4-7.5h0.8l2,6.4l2-6.4H68L65.6,56l2.5,8.1H67.3z"/>
	<path class="st8" d="M69.9,62.6l-0.5,4.2H69l0.3-4.2H69.9z"/>
	<path class="st8" d="M74.4,60.4h0.7c0.1,2,0.8,3,2,3c1.2,0,2-1.2,2-3c0-3.8-4.6-4-4.6-8.5c0-2,1.1-3.6,2.5-3.6c1.5,0,2.4,1.6,2.5,4
		H79c-0.1-2-0.8-3-1.9-3c-1.2,0-1.9,1-1.9,2.6c0,3.8,4.6,3.8,4.6,8.5c0,2-0.9,3.8-2.7,3.8C75.5,64.5,74.6,62.9,74.4,60.4z"/>
	<path class="st8" d="M86.1,63.3v1h-4.7V48.9h4.7v1h-4v5.8h3.7v1h-3.7v6.4H86.1z"/>
	<path class="st8" d="M88,48.7h2.3c1.9,0,2.8,1.6,2.8,4.4v6.4c0,2.8-1.1,4.4-2.8,4.4H88V48.7z M90.1,63.3c1.5,0,2.3-1.2,2.3-3.6
		v-6.4c0-2.4-0.8-3.4-2.3-3.4h-1.6v13.5H90.1z"/>
	<path class="st8" d="M103.1,63.3v1h-4.4V48.9h0.7v14.5h3.7V63.3z"/>
	<path class="st8" d="M109.1,63.3v1h-4.7V48.9h4.7v1h-4v5.8h3.7v1h-3.7v6.4H109.1z"/>
	<path class="st8" d="M115,64.1l-2.1-7.1l-2.1,7.1h-0.7l2.5-8.1l-2.4-7.5h0.8l2,6.4l2-6.4h0.7l-2.4,7.5l2.5,8.1H115z"/>
	<path class="st8" d="M117,63.5c0-0.6,0.3-0.8,0.5-0.8c0.3,0,0.5,0.4,0.5,0.8c0,0.4-0.3,0.8-0.5,0.8C117.3,64.3,117,64.1,117,63.5z
		 M117.3,48.7h0.7v12.5h-0.7V48.7z"/>
</g>
<g>
	<path class="st8" d="M53.1,17.5v24.6h-2.9V30.8c0-2.7,0.2-5,0.2-7.5h-0.2c-0.7,1.8-1.6,4.1-2.5,6.4l-2.5,6.6h-2.9l-2.7-6.6
		c-0.9-2.3-1.8-4.6-2.5-6.4H37c0.2,2.3,0.2,4.8,0.2,7.5v11.2h-2.9V17.5h3l4.3,10.3c0.5,1.4,1.4,3.9,1.8,5.2h0.2
		c0.4-1.2,1.2-3.7,2-5.2l4.3-10.3C49.9,17.5,53.1,17.5,53.1,17.5z"/>
	<path class="st8" d="M79.8,25.7V34c0,5.3-2.7,8.4-7.3,8.4c-4.5,0-7.3-3.2-7.3-8.4v-3h-4.1v11.2h-2.9V17.5h2.9v10.7h4.1v-2.7
		c0-5.3,2.7-8.4,7.3-8.4C77.1,17.1,79.8,20.3,79.8,25.7z M76.8,25.7c0-3.7-1.4-5.7-4.3-5.7s-4.3,2-4.3,5.7V34c0,3.7,1.4,5.7,4.3,5.7
		s4.3-2,4.3-5.7V25.7z"/>
	<path class="st8" d="M96.9,17.5v24.6H94V20.1h-5.7c-0.4,7.5-0.7,13.7-1.1,16.8c-0.5,3.9-2.3,5.5-5.5,5.5v-2.7
		c1.6,0,2.3-1.2,2.7-3.4c0.4-2.7,0.7-8.9,1.1-18.9C85.5,17.5,96.9,17.5,96.9,17.5z"/>
</g>
</svg>
