<svg  width="25px" height="25px" xmlns="http://www.w3.org/2000/svg" viewBox="0 0 21.08 18.12"><defs><style>.cls-1{fill:none;}.cls-1,.cls-2,.cls-3{stroke:#fff;stroke-miterlimit:10;}.cls-1,.cls-2{stroke-width:0.75px;}.cls-2,.cls-3{fill:#2b96f7;}.cls-3{stroke-width:0.75px;}.cls-4{fill:#fff;}</style></defs><title>Ресурс 5</title><g id="Слой_2" data-name="Слой 2"><g id="Слой_7" data-name="Слой 7"><path class="cls-1" d="M6.82,17.65.43,16.19l0-11.88L6.82,6.18Z"/><path class="cls-1" d="M20.71,17.65l-6.39-1.46L14.26,4.31l6.45,1.87Z"/><path class="cls-1" d="M12.9,4.63,7.54,6.18V17.65l6.39-1.46L14,4.31l-1.09.32"/><path class="cls-2" d="M13.1.37a2.37,2.37,0,0,0-1.74,1.09A3,3,0,0,0,10.87,3a3.59,3.59,0,0,0,.46,1.84,6.8,6.8,0,0,0,1.59,2l.27.26"/><path class="cls-3" d="M13,.38a2.39,2.39,0,0,1,1.88,1.08A3.14,3.14,0,0,1,15.41,3a3.49,3.49,0,0,1-.47,1.84,7.67,7.67,0,0,1-1.59,2L13.14,7"/><ellipse class="cls-2" cx="13.18" cy="2.93" rx="0.73" ry="0.89"/><rect class="cls-4" x="13.01" y="7.08" width="0.32" height="0.38" transform="translate(8.99 -7.19) rotate(45)"/></g></g></svg>