<svg xmlns="http://www.w3.org/2000/svg" viewBox="0 0 23.53 23.53" width="20px" height="20px"><defs><style>.cls-1{fill:#668edd;}</style></defs><title>Ресурс 4</title><g id="Слой_2" data-name="Слой 2"><g id="Слой_6" data-name="Слой 6"><path class="cls-1" d="M11.77,0A11.77,11.77,0,1,0,23.53,11.77,11.77,11.77,0,0,0,11.77,0Zm.17,17.31a1.76,1.76,0,0,1-.59.38,1.87,1.87,0,0,1-2.13-.3L4,12.26A1.5,1.5,0,0,1,4.12,10h0a1.85,1.85,0,0,1,2.46.08l4,3.91,7.15-7.06a1.86,1.86,0,0,1,2.44-.08l0,0a1.51,1.51,0,0,1,.09,2.24Z"/></g></g></svg>