<svg  width="25px" height="25px"  xmlns="http://www.w3.org/2000/svg" viewBox="0 0 13.25 19"><defs><style>.cls-1{fill:#fff;}</style></defs><title>Ресурс 16</title><g id="Слой_2" data-name="Слой 2"><g id="Слой_7" data-name="Слой 7"><path class="cls-1" d="M3.76,0,4,.31l.24.35a4.5,4.5,0,0,1,.38.84c0,.05.24.6.29.76.24.86-.9,2.08-1.28,2.83-.45.91-.51,2.53,1.5,5.62L3.48,11.92c-.42-.77-.75-1.4-1-1.82C.21,5.56,0,3.77,0,2.41,0,2.2,0,2,0,1.93a2.26,2.26,0,0,1,.22-.52A2.76,2.76,0,0,1,1.74.35,5.18,5.18,0,0,1,3.35,0Z"/><path class="cls-1" d="M13.25,15.73l-.17-.35-.2-.38a3.8,3.8,0,0,0-.54-.7s-.41-.46-.52-.57c-.62-.56-2,.25-2.77.35s-2.15-.45-3.92-3.37a3.27,3.27,0,0,0-.92.48,3.84,3.84,0,0,0-.73.73c.14.23.34.53.58.89l.5.7c2.87,4,4.24,4.91,5.36,5.35l.4.14a1.47,1.47,0,0,0,.51-.06,2.79,2.79,0,0,0,1.4-1.2,6.54,6.54,0,0,0,.86-1.58C13.16,16,13.21,15.84,13.25,15.73Z"/></g></g></svg>