<svg xmlns="http://www.w3.org/2000/svg" viewBox="0 0 31.66 31.69"><defs><style>.cls-1{fill:#fcfcfc;}.cls-2{fill:none;stroke:#2b96f7;stroke-miterlimit:10;stroke-width:1.16px;}.cls-3{fill:#2b96f7;}</style></defs><title>Ресурс 14</title><g id="Слой_2" data-name="Слой 2"><g id="Слой_8" data-name="Слой 8"><ellipse class="cls-1" cx="15.83" cy="15.85" rx="15.83" ry="15.85"/><path class="cls-2" d="M19.49,6.84H12.17a6,6,0,0,0-6,6v6.57a6,6,0,0,0,4.9,5.91l0,.06L12,27.58a12.32,12.32,0,0,0,1.7-2.08l0-.05,5.75-.07a6,6,0,0,0,4.22-1.7,6.12,6.12,0,0,0,1.76-4.25V12.86A6,6,0,0,0,19.49,6.84Z"/><path class="cls-3" d="M12.58,10.35a1.39,1.39,0,0,1,.17.21c.06.07.14.16.18.22a2.39,2.39,0,0,1,.28.54s.17.39.21.5c.18.55-.65,1.34-.93,1.83s-.38,1.63,1.1,3.63l-1.21.79c-.31-.5-.55-.91-.71-1.18-1.68-2.94-1.86-4.1-1.83-5a2.05,2.05,0,0,1,0-.31,1.1,1.1,0,0,1,.16-.34,2,2,0,0,1,1.09-.68,4.41,4.41,0,0,1,1.17-.22Z"/><path class="cls-3" d="M19.52,20.54l-.13-.24-.14-.24a2.34,2.34,0,0,0-.4-.45s-.29-.3-.38-.37c-.45-.37-1.42.16-2,.23s-1.57-.3-2.86-2.19a2.76,2.76,0,0,0-.68.31,2.59,2.59,0,0,0-.53.48l.42.57.36.45c2.1,2.61,3.1,3.18,3.92,3.47l.3.09a1.37,1.37,0,0,0,.37,0,2,2,0,0,0,1-.77,4.46,4.46,0,0,0,.62-1Z"/><path class="cls-3" d="M18.13,16.52a3,3,0,0,0-.64-2.19,2.81,2.81,0,0,0-1.68-1,.11.11,0,0,1,0-.06c0-.07.06-.13.09-.15a.13.13,0,0,1,.07,0H16a3.15,3.15,0,0,1,.93.27,2.89,2.89,0,0,1,1,.7,2.53,2.53,0,0,1,.49,2.44.2.2,0,0,1-.13.1A.18.18,0,0,1,18.13,16.52Z"/><path class="cls-3" d="M19.4,16.26a3.73,3.73,0,0,0-.8-2.75,3.57,3.57,0,0,0-2.1-1.23.15.15,0,0,1,0-.07c0-.09.07-.16.1-.19a.2.2,0,0,1,.09,0h.09a4.17,4.17,0,0,1,1.16.34,3.57,3.57,0,0,1,1.22.87,3.21,3.21,0,0,1,.61,3.07.26.26,0,0,1-.16.12A.25.25,0,0,1,19.4,16.26Z"/><path class="cls-3" d="M20.91,16.15a4.79,4.79,0,0,0-1-3.51,4.59,4.59,0,0,0-2.69-1.58.2.2,0,0,1,0-.08.28.28,0,0,1,.14-.25.71.71,0,0,1,.11-.07.19.19,0,0,1,.11,0,5,5,0,0,1,1.49.44,4.42,4.42,0,0,1,1.55,1.11,4.06,4.06,0,0,1,.78,3.92.32.32,0,0,1-.2.15C21,16.3,20.94,16.19,20.91,16.15Z"/></g></g></svg>